- 
http://www.Speed.Cd      fast  and The Hottest Private Tracker on the net

Please Seed back to make the speed Faster!!!

------------------nfo--------------------------
-[IMG]http://img14.imageshack.us/img14/5875/5050582870060.jpg[/IMG]


[color=blue][size=5][b]Kung.Fu.Panda.2.2011.BDRip.XVID.AC3.HQ.Hive-CM8[/b][/size][/color]


[b]Thx Hive

CM8 Doing It Right The First Time :D


Source: Bluray

Video: 720x304 @bitrate 2000 2pass
Audio: English True HD 640 to AC3 5.1 @448
Sample: Yes, included
Subs: Yes, english in srt /subs[/b]

 
http://www.imdb.com/title/tt1302011/


General
Complete name                    : Kung.Fu.Panda.2.2011.BDRip.XVID.AC3.HQ.Hive-CM8.avi
Format                           : AVI
Format/Info                      : Audio Video Interleave
File size                        : 1.56 GiB
Duration                         : 1h 30mn
Overall bit rate                 : 2 463 Kbps
Writing application              : Nandub v1.0rc2
Writing library                  : Nandub build 1853/release

Video
ID                               : 0
Format                           : MPEG-4 Visual
Format profile                   : Advanced Simple@L5
Format settings, BVOP            : 1
Format settings, QPel            : Yes
Format settings, GMC             : No warppoints
Format settings, Matrix          : Default (H.263)
Muxing mode                      : Packed bitstream
Codec ID                         : XVID
Codec ID/Hint                    : XviD
Duration                         : 1h 30mn
Bit rate                         : 2 006 Kbps
Width                            : 720 pixels
Height                           : 304 pixels
Display aspect ratio             : 2.35:1
Frame rate                       : 23.976 fps
Color space                      : YUV
Chroma subsampling               : 4:2:0
Bit depth                        : 8 bits
Scan type                        : Progressive
Compression mode                 : Lossy
Bits/(Pixel*Frame)               : 0.382
Stream size                      : 1.27 GiB (81%)
Writing library                  : XviD 1.2.1 (UTC 2008-12-04)

Audio
ID                               : 1
Format                           : AC-3
Format/Info                      : Audio Coding 3
Mode extension                   : CM (complete main)
Codec ID                         : 2000
Duration                         : 1h 30mn
Bit rate mode                    : Constant
Bit rate                         : 448 Kbps
Channel(s)                       : 6 channels
Channel positions                : Front: L C R, Side: L R, LFE
Sampling rate                    : 48.0 KHz
Bit depth                        : 16 bits
Compression mode                 : Lossy
Stream size                      : 290 MiB (18%)
Alignment                        : Split accross interleaves
Interleave, duration             : 42 ms (1.00 video frame)
Interleave, preload duration     : 500 ms


Plot:
Po joins forces with a group of new kung-fu masters to take on
an old enemy with a deadly new weapon.


Cast:
Jack Black       ...    Po (voice)
Angelina Jolie   ...    Tigress (voice)
Dustin Hoffman   ...    Shifu (voice)
Gary Oldman      ...    Shen (voice)
Jackie Chan      ...    Monkey (voice)
Seth Rogen       ...    Mantis (voice)
Lucy Liu         ...    Viper (voice)


[img]http://img444.imageshack.us/img444/2811/44940749.png[/img]
[img]http://img80.imageshack.us/img80/5593/kukkukkuukuu.png[/img]
[img]http://img695.imageshack.us/img695/4453/kukkukukuu.png[/img]
[img]http://img850.imageshack.us/img850/4530/kukkukuu.png[/img]
[img]http://img97.imageshack.us/img97/5467/kukups.png[/img]
[img]http://img40.imageshack.us/img40/8131/kukukkukkuukuu.png[/img]
[IMG]http://img401.imageshack.us/img401/3441/kukkuu.png[/IMG]




Greetz

ViSiON,SiC,SANTi,3LT0N,YanKeeS,MAGNET,THC,T0XiC,LKRG,FANTASIA-PLAY,FANTASIA-M,FLAWL3SS,
D2U,WBZ,BHRG,NOVA,Vik,Rapeseed,SAFC,goldadvance,MEMORY100,KaN1vE,Unevano,Pinnz,Wayne
Mr Hive,cedrict wink,and all P2P groups
Great Work Guys :D

LOOKING FOR ANYTHING YOU WANT TO LOOK AND SOUND BETTER

CM8@hushmail.com